<?xml version="1.0" encoding="iso-8859-1"?>
<!-- Generator: Adobe Illustrator 19.0.0, SVG Export Plug-In . SVG Version: 6.00 Build 0)  -->
<svg version="1.1" id="Layer_1" xmlns="http://www.w3.org/2000/svg" xmlns:xlink="http://www.w3.org/1999/xlink" x="0px" y="0px"
	 viewBox="0 0 512 512" style="enable-background:new 0 0 512 512;" xml:space="preserve">
<path style="fill:#A384E2;" d="M311.652,456.348C311.652,487.083,286.736,512,256,512l0,0c-30.736,0-55.652-24.917-55.652-55.652
	v-244.87h111.304V456.348z"/>
<path style="fill:#CDBDFF;" d="M222.609,478.609L222.609,478.609c-12.295,0-22.261-9.966-22.261-22.261V300.522
	c0-12.295,9.966-22.261,22.261-22.261l0,0c12.295,0,22.261,9.966,22.261,22.261v155.826
	C244.87,468.642,234.903,478.609,222.609,478.609z"/>
<path style="fill:#B69CF7;" d="M512,44.522L512,44.522c0,24.588-19.933,44.522-44.522,44.522h-11.13L381.89,252.851
	c-22.439,49.367-71.662,81.062-125.89,81.062l0,0c-54.227,0-103.451-31.695-125.89-81.062L55.652,89.043h-11.13
	C19.933,89.043,0,69.11,0,44.522l0,0C0,19.933,19.933,0,44.522,0h422.957C492.066,0,512,19.933,512,44.522z"/>
<path style="fill:#CDBDFF;" d="M347.067,66.783v22.261l0,0l-54.151,119.132c-16.319,35.903-52.118,58.955-91.557,58.955l0,0
	c-39.438,0-75.236-23.051-91.557-58.955L55.652,89.043l0,0V66.783H347.067z"/>
<path style="fill:#A384E2;" d="M512,44.522c0,24.588-19.933,44.522-44.522,44.522H44.522C19.933,89.043,0,69.11,0,44.522H512z"/>
<path style="fill:#FFFFFF;" d="M486.957,44.522c0,4.61-3.738,8.348-8.348,8.348H311.652c-4.61,0-8.348-3.738-8.348-8.348
	s3.738-8.348,8.348-8.348h166.957C483.219,36.174,486.957,39.912,486.957,44.522z M267.13,36.174h-1.113
	c-4.61,0-8.348,3.738-8.348,8.348s3.738,8.348,8.348,8.348h1.113c4.61,0,8.348-3.738,8.348-8.348S271.741,36.174,267.13,36.174z"/>
<g>
</g>
<g>
</g>
<g>
</g>
<g>
</g>
<g>
</g>
<g>
</g>
<g>
</g>
<g>
</g>
<g>
</g>
<g>
</g>
<g>
</g>
<g>
</g>
<g>
</g>
<g>
</g>
<g>
</g>
</svg>
