<svg width="186.1750244140625px" height="122.021240234375px" xmlns="http://www.w3.org/2000/svg" viewBox="156.91248779296876 13.9893798828125 186.1750244140625 122.021240234375" style="background: rgba(0, 0, 0, 0);" preserveAspectRatio="xMidYMid"><defs><linearGradient id="editing-sticker-gradient" x1="0.5" y1="0.2" x2="0.5" y2="0.8"><stop offset="0" stop-color="#fd9"></stop><stop offset="1" stop-color="#9df"></stop></linearGradient><filter id="editing-sticker" x="-100%" y="-100%" width="300%" height="300%"><feMorphology operator="erode" radius="1" in="SourceAlpha" result="alpha-erode"></feMorphology><feConvolveMatrix order="3,3" divisor="1" kernelMatrix="0 1 0 1 1 1 0 1 0" in="alpha-erode" result="alpha-round"></feConvolveMatrix><feMorphology operator="dilate" radius="3.5" in="alpha-round" result="dilate-shadow"></feMorphology><feGaussianBlur in="dilate-shadow" stdDeviation="1.5" result="shadow"></feGaussianBlur><feFlood flood-color="#fff" result="flood-sticker"></feFlood><feComposite operator="in" in="flood-sticker" in2="alpha-round" result="comp-sticker"></feComposite><feMorphology operator="dilate" radius="3" in="comp-sticker" result="morph-sticker"></feMorphology><feConvolveMatrix order="3,3" divisor="1" kernelMatrix="0 1 0 1 1 1 0 1 0" in="morph-sticker" result="sticker"></feConvolveMatrix><feMerge><feMergeNode in="shadow"></feMergeNode><feMergeNode in="sticker"></feMergeNode><feMergeNode in="SourceGraphic"></feMergeNode></feMerge></filter></defs><g filter="url(#editing-sticker)"><g transform="translate(189.20000290870667, 98.9921875)"><path d="M14.14 0L0.51 0L7.81-38.91L8.51-42.24L22.21-42.24L14.14 0ZM40.13-3.78L40.13-3.78L40.13-3.78Q38.40 1.28 31.74 1.28L31.74 1.28L31.74 1.28Q26.82 1.28 23.42-4.61L23.42-4.61L23.42-4.61Q19.97-10.50 19.33-20.10L19.33-20.10L19.33-20.10Q26.37-32.96 31.23-38.27L31.23-38.27L31.23-38.27Q35.90-43.33 40.77-43.33L40.77-43.33L40.77-43.33Q43.39-43.33 45.28-41.92L45.28-41.92L45.28-41.92Q47.17-40.51 47.62-38.27L47.62-38.27L47.62-38.27Q45.44-37.38 44.42-36.67L44.42-36.67L44.42-36.67Q41.86-34.75 38.40-30.46L38.40-30.46L32.58-23.49L32.58-23.49Q31.17-21.82 30.59-21.06L30.59-21.06L30.59-21.06Q31.55-15.68 34.43-10.37L34.43-10.37L34.43-10.37Q37.18-5.31 40.13-3.78ZM60.93-3.52L60.93-3.52L60.93-3.52Q58.94 1.28 52.61 1.28L52.61 1.28L52.61 1.28Q49.34 1.28 47.30-0.96L47.30-0.96L47.30-0.96Q45.57-2.94 45.57-4.93L45.57-4.93L45.57-4.93Q45.57-10.11 47.94-20.22L47.94-20.22L50.30-32.64L63.30-33.92L59.39-13.70L59.39-13.70Q58.30-8.96 58.30-7.30L58.30-7.30L58.30-7.30Q58.30-3.65 60.93-3.52ZM51.46-41.54L51.46-41.54L51.46-41.54Q51.46-44.03 53.54-45.38L53.54-45.38L53.54-45.38Q55.62-46.72 58.62-46.72L58.62-46.72L58.62-46.72Q61.63-46.72 63.46-45.38L63.46-45.38L63.46-45.38Q65.28-44.03 65.28-41.54L65.28-41.54L65.28-41.54Q65.28-39.04 63.26-37.76L63.26-37.76L63.26-37.76Q61.25-36.48 58.24-36.48L58.24-36.48L58.24-36.48Q55.23-36.48 53.34-37.76L53.34-37.76L53.34-37.76Q51.46-39.04 51.46-41.54ZM67.39-6.40L67.39-6.40L67.39-6.40Q67.39-8.13 68.29-12.48L68.29-12.48L71.68-29.76L67.90-29.76L68.16-31.68L68.16-31.68Q75.84-33.98 83.26-39.62L83.26-39.62L86.34-39.62L84.80-32.64L89.79-32.64L89.22-29.76L84.29-29.76L81.02-12.48L81.02-12.48Q80.19-8.51 80.19-7.17L80.19-7.17L80.19-7.17Q80.19-4.10 82.88-3.46L82.88-3.46L82.88-3.46Q82.24-1.28 79.94 0L79.94 0L79.94 0Q77.63 1.28 74.37 1.28L74.37 1.28L74.37 1.28Q71.10 1.28 69.25-0.77L69.25-0.77L69.25-0.77Q67.39-2.82 67.39-6.40ZM115.14-10.82L115.14-10.82L115.14-10.82Q116.74-9.73 116.74-7.33L116.74-7.33L116.74-7.33Q116.74-4.93 115.52-3.39L115.52-3.39L115.52-3.39Q114.30-1.86 112.32-0.83L112.32-0.83L112.32-0.83Q108.22 1.28 103.81 1.28L103.81 1.28L103.81 1.28Q99.39 1.28 96.80 0.32L96.80 0.32L96.80 0.32Q94.21-0.64 92.48-2.43L92.48-2.43L92.48-2.43Q89.09-5.82 89.09-12.03L89.09-12.03L89.09-12.03Q89.09-21.70 94.34-27.58L94.34-27.58L94.34-27.58Q99.97-33.92 109.76-33.92L109.76-33.92L109.76-33.92Q115.84-33.92 118.85-31.36L118.85-31.36L118.85-31.36Q121.09-29.44 121.09-26.30L121.09-26.30L121.09-26.30Q121.09-15.04 101.63-15.04L101.63-15.04L101.63-15.04Q101.38-13.38 101.38-11.97L101.38-11.97L101.38-11.97Q101.38-9.02 102.69-7.90L102.69-7.90L102.69-7.90Q104-6.78 106.43-6.78L106.43-6.78L106.43-6.78Q108.86-6.78 111.46-7.90L111.46-7.90L111.46-7.90Q114.05-9.02 115.14-10.82ZM102.08-17.79L102.08-17.79L102.08-17.79Q106.62-17.79 109.25-20.61L109.25-20.61L109.25-20.61Q111.87-23.30 111.87-27.58L111.87-27.58L111.87-27.58Q111.87-29.06 111.33-29.86L111.33-29.86L111.33-29.86Q110.78-30.66 109.70-30.66L109.70-30.66L109.70-30.66Q108.61-30.66 107.68-30.24L107.68-30.24L107.68-30.24Q106.75-29.82 105.79-28.42L105.79-28.42L105.79-28.42Q103.42-25.22 102.08-17.79Z" fill="url(#editing-sticker-gradient)" stroke="#000" stroke-width="2.5"></path></g></g><style>text {
  font-size: 64px;
  font-family: Arial Black;
  dominant-baseline: central;
  text-anchor: middle;
}</style></svg>